<?xml version="1.0" encoding="utf-8"?>
<!-- Generator: Adobe Illustrator 16.0.0, SVG Export Plug-In . SVG Version: 6.00 Build 0)  -->
<!DOCTYPE svg PUBLIC "-//W3C//DTD SVG 1.1//EN" "http://www.w3.org/Graphics/SVG/1.1/DTD/svg11.dtd">
<svg version="1.1" xmlns="http://www.w3.org/2000/svg" xmlns:xlink="http://www.w3.org/1999/xlink" x="0px" y="0px" width="1000px"
	 height="1000px" viewBox="0 0 1000 1000" enable-background="new 0 0 1000 1000" xml:space="preserve">
<g id="fondo">
	<rect width="1000" height="1000"/>
</g>
<g id="Layer_1" display="none">
	<path display="inline" fill-rule="evenodd" clip-rule="evenodd" fill="#FFFFFF" stroke="#FFFFFF" stroke-miterlimit="10" d="
		M897.522,678.594c-2.24-0.265-5.372-0.57-8.484-1.015c-6.92-0.989-13.068,1.251-19.112,4.256
		c-11.675,5.804-23.488,10.952-37.082,9.837c-5.886-0.482-11.882-0.515-17.762,0.002c-17.102,1.501-31.952-3.943-45.949-13.292
		c-5.599-3.739-12.206-5.93-18.122-9.239c-10.4-5.816-21.029-11.36-30.813-18.105c-11.732-8.088-24.299-11.938-38.391-11.455
		c-9.582,0.328-19.178-0.789-28.555,2.98c-11.391,4.58-19.584,12.85-27.663,21.5c-1.593,1.705-3.795,2.822-5.551,4.396
		c-9.424,8.441-18.959,16.771-28.118,25.492c-4.799,4.568-8.706,10.068-13.438,14.718c-1.663,1.634-4.584,2.804-6.932,2.806
		c-120.978,0.134-241.955,0.17-362.933-0.081c-4.652-0.01-9.64-2.317-13.866-4.651c-5.983-3.305-11.394-7.644-17.065-11.518
		c-7.987-5.458-16.654-10.149-23.813-16.533c-8.746-7.799-16.923-16.478-24.086-25.749c-8.721-11.288-17.587-22.104-30.117-29.348
		c-1.003-0.58-1.893-1.359-2.821-2.064c-5.54-4.21-6.917-9.843-3.6-14.695c3.194-4.673,10.916-5.922,16.136-2.681
		c14.361,8.919,26.192,20.653,35.3,34.668c8.808,13.552,21.313,22.478,34.194,31.268c7.78,5.31,15.537,10.654,23.352,15.913
		c5.347,3.599,11.055,5.509,17.746,5.501c113.312-0.133,226.625-0.12,339.938-0.004c4.534,0.004,8.006-1.005,10.884-4.557
		c5.111-6.307,10.304-12.555,15.69-18.625c1.431-1.612,4.246-2.086,5.47-3.774c3.476-4.795,8.683-7.298,13.019-10.932
		c9.3-7.794,18.036-16.26,27.303-24.096c7.701-6.512,16.821-9.941,26.982-10.08c9.33-0.128,18.685,0.383,27.989-0.117
		c16.669-0.897,31.104,4.033,44.77,13.594c9.834,6.882,21.031,11.812,31.603,17.643c7.688,4.24,15.133,8.994,23.08,12.663
		c7.156,3.304,14.678,6.376,22.362,7.803c6.191,1.149,12.952-1.107,19.309-0.432c10.356,1.102,19.618-1.962,28.077-6.806
		c14.024-8.03,28.82-8.615,43.964-6.135c6.274,1.028,10.422,5.012,10.022,11.682C910.084,675.275,905.666,678.554,897.522,678.594z"
		/>
	<path display="inline" fill-rule="evenodd" clip-rule="evenodd" fill="#FFFFFF" stroke="#FFFFFF" stroke-miterlimit="10" d="
		M243.479,172.652c13.76-0.871,25.932,4.821,38.331,9.506c4.339,1.64,8.496,3.778,12.688,5.789
		c9.366,4.492,17.946,1.638,26.745-2.186c12.603-5.477,25.175-11.337,38.296-15.228c14.142-4.193,29.045-2.812,43.584-1.277
		c12.026,1.269,22.235-2.888,32.027-8.8c6.711-4.052,13.603-6.106,21.596-6.221c15.038-0.216,29.646,0.784,42.839,8.834
		c3.796,2.316,7.399,5.048,10.748,7.981c5.122,4.487,9.981,9.279,14.889,14.007c5.926,5.709,13.355,7.109,21.119,7.308
		c7.327,0.188,14.712-0.501,21.983,0.159c13.502,1.227,26.923,3.333,40.417,4.68c3.938,0.394,8.207,0.115,11.978-1.014
		c7.138-2.138,13.859-5.771,21.056-7.589c11.163-2.821,22.421-1.141,33.54,1.267c3.07,0.665,6.222,1.534,9.309,1.44
		c12.538-0.381,23.317,4.302,33.683,10.703c4.49,2.773,9.103,5.807,14.085,7.239c15.413,4.431,30.121,1.427,43.228-7.286
		c11.174-7.429,21.543-16.066,32.294-24.136c9.012-6.764,18.885-11.211,30.441-10.39c11.062,0.787,22.092,2.197,33.164,2.654
		c6.215,0.257,12.489-0.847,18.733-1.365c3.941-0.327,7.908-1.179,11.81-0.935c4.399,0.275,7.225,3.168,8.127,7.579
		c0.934,4.563-0.293,9.084-4.605,10.5c-7.769,2.55-15.9,5.169-23.947,5.396c-10.512,0.297-21.225-0.967-31.601-2.9
		c-13.043-2.43-23.521,2.51-33.415,9.567c-9.85,7.026-19.282,14.64-28.863,22.039c-10.738,8.292-23.221,11.208-36.415,11.544
		c-7.3,0.186-14.646,0.029-21.918-0.596c-9.134-0.785-16.115-6.673-23.716-11.028c-8.621-4.94-17.661-8.342-27.824-8.393
		c-3.934-0.02-7.956-0.674-11.774-1.668c-9.032-2.352-17.666-1.984-26.039,2.4c-13.746,7.198-28.062,8.022-43.064,4.509
		c-18.398-4.309-37.191-4.554-55.995-4.191c-2.966,0.057-5.939-0.544-8.915-0.617c-8.746-0.214-14.777-5.522-20.502-11.107
		c-7.974-7.778-15.266-16.447-26.18-20.284c-6.55-2.303-13.237-4.385-20.022-5.8c-7.594-1.583-14.724,1.141-20.716,5.424
		c-15.815,11.303-33.548,10.4-51.349,8.733c-13.414-1.255-26.253,0.691-38.582,5.626c-10.471,4.192-20.431,9.683-30.96,13.701
		c-13.568,5.177-27.134,4.507-40.722-1.252c-11.886-5.038-24.187-9.12-36.411-13.315c-2.158-0.74-4.99-0.479-7.251,0.193
		c-22.919,6.807-46.122,12.97-66.945,25.263c-12.57,7.421-24.74,15.524-37.359,22.859c-9.021,5.243-18.356,10.003-27.814,14.412
		c-4.515,2.105-9.564,2.029-13.318-2.262c-2.764-3.16-3.641-7.161-1.47-10.667c1.841-2.974,4.536-6.163,7.616-7.498
		c14.585-6.322,27.525-15.248,40.849-23.724c12.837-8.167,26.696-14.751,40.232-21.788c16.811-8.74,35.527-11.901,53.35-17.675
		C237.248,171.897,240.486,172.652,243.479,172.652z"/>
	<path display="inline" fill-rule="evenodd" clip-rule="evenodd" fill="#FFFFFF" stroke="#FFFFFF" stroke-miterlimit="10" d="
		M126.223,520.321c6.146,1.749,12.45,3.144,18.446,5.368c5.421,2.011,10.186,2.137,15.071-1.264
		c5.572-3.877,11.314-7.519,17.078-11.108c10.492-6.535,22.332-8.27,33.425-4.072c13.732,5.196,22.789-0.974,32.146-8.912
		c6.072-5.151,12.321-10.096,18.525-15.091c8.922-7.183,19.694-9.274,30.592-10.774c13.61-1.873,27.22-4.088,40.906-4.974
		c12.019-0.778,24.371-1.316,36.153,0.617c10.741,1.762,19.844,0.679,27.997-6.008c11.154-9.148,23.705-10.127,37.175-7.846
		c7.008,1.187,14.159,1.573,21.132,2.909c10.96,2.099,19.413,8.989,28.102,15.441c14.963,11.11,31.687,19.45,49.592,23.589
		c14.534,3.36,26.738,10.535,39.548,17.039c6.685,3.394,13.49,4.034,21.137,3.635c11.168-0.583,22.503,0.768,33.682,2.044
		c8.786,1.003,17.37,1.342,25.145-3.267c14.535-8.615,29.927-11.175,46.516-8.371c7.024,1.188,13.712-0.945,20.402-3.388
		c11.071-4.043,22.199-8.577,33.707-10.574c8.889-1.542,18.42,0.213,27.615,1.057c3.554,0.326,6.969,2.178,10.446,3.339
		c5.618,1.875,11.294,2.801,17.051,0.68c16.616-6.123,33.182-3.69,50.095-0.895c13.002,2.149,26.391,2.183,39.625,2.617
		c5.982,0.195,10.852,2.281,12.454,7.012c1.604,4.733-0.34,10.666-5.378,13.274c-2.559,1.325-6.078,1.049-9.161,1.038
		c-3.465-0.012-6.948-0.953-10.387-0.774c-17.086,0.886-33.684-2.44-50.405-5.092c-4.328-0.687-9.246,0.357-13.529,1.736
		c-14.504,4.667-28.956,4.944-42.962-0.891c-10.11-4.213-19.555-3.681-29.41,0.166c-8.661,3.382-17.457,6.439-26.284,9.369
		c-2.947,0.978-6.178,1.579-9.271,1.554c-9.296-0.078-18.661-1.383-27.857-0.578c-6.24,0.545-12.695,3.009-18.255,6.069
		c-11.391,6.271-23.405,8.421-36.067,7.504c-7.581-0.549-15.078-2.339-22.659-2.792c-8.401-0.502-16.876-0.475-25.282-0.021
		c-9.446,0.511-17.72-2.536-25.504-7.235c-10.291-6.214-20.693-11.63-32.883-13.602c-6.749-1.092-13.249-4.283-19.611-7.094
		c-13.376-5.908-26.267-12.646-37.699-22.025c-10.932-8.968-24.157-11.473-37.894-13.41c-12.605-1.778-20.26,6.598-29.894,11.191
		c-4.205,2.005-9.032,3.943-13.532,3.846c-11.233-0.243-22.427-2.111-33.664-2.46c-7.059-0.219-14.188,0.95-21.246,1.81
		c-12.329,1.502-24.636,3.189-36.937,4.905c-11.854,1.653-22.037,6.822-31.106,14.59c-6.923,5.93-14.257,11.378-21.334,17.131
		c-8.838,7.185-19.723,7.364-29.009,4.279c-13.825-4.593-24.606-1.395-34.984,7.077c-13.551,11.062-28.271,13.049-44.238,6.011
		c-5.29-2.332-10.532-2.139-15.989-0.403c-4.417,1.404-8.973,2.697-13.557,3.172c-6.65,0.688-10.954-2.409-12.182-7.779
		c-1.192-5.212,1.931-11.193,7.805-12.924C108.177,524.244,116.968,522.52,126.223,520.321z"/>
	<path display="inline" fill-rule="evenodd" clip-rule="evenodd" fill="#FFFFFF" stroke="#FFFFFF" stroke-miterlimit="10" d="
		M878.914,78.001c4.336,4.11,9.562,5.323,15.477,3.714c0.636-0.173,1.31-0.227,1.971-0.278c8.496-0.66,13.873,3.021,14.152,9.677
		c0.272,6.477-5.568,11.442-13.508,11.477c-2.167,0.009-4.371-0.254-6.491,0.058c-3.723,0.548-7.395,1.444-12.007,2.38
		c-1.97-3.124-5.724-1.728-9.527-0.151c-1.229,0.509-2.708,0.611-3.746,1.355c-7.984,5.726-17.069,5.683-26.29,5.4
		c-6.826-0.209-13.682-0.359-20.492,0.024c-14.886,0.837-28.288-3.871-40.479-11.57c-5.133-3.243-8.498-9.2-12.952-13.636
		c-2.684-2.672-5.816-4.934-8.924-7.13c-6.876-4.859-14.48-3.814-22.094-2.426c-1.627,0.297-3.272,0.512-4.918,0.687
		c-11.852,1.259-23.758,2.139-35.547,3.833c-15.486,2.227-28.4-2.192-39.563-12.999c-6.015-5.821-12.884-10.834-21.449-11.9
		c-4.277-0.533-8.847,0.239-13.145,1.111c-8.767,1.781-17.478,3.881-26.142,6.12c-13.707,3.542-23.468,13.435-34.263,21.658
		c-7.146,5.444-14.452,10.411-23.427,12.786c-7.515,1.988-14.584,5.627-22.071,7.756c-10.576,3.006-21.369,2.442-32.036,0.049
		c-10.822-2.428-21.793-4.431-32.342-7.75c-6.52-2.051-12.387-6.194-18.52-9.448c-1.167-0.62-2.176-1.532-3.314-2.215
		c-7.675-4.609-15.245-7.128-24.869-5.256c-17.357,3.377-35.032,5.246-52.636,7.189c-11.03,1.218-22.226,0.947-33.246,2.222
		c-9.693,1.122-19.232,3.538-28.863,5.25c-14.586,2.593-28.938,2.585-43.308-2.159c-8.76-2.892-18.027-5.708-27.097-5.806
		c-10.093-0.11-20.879,1.229-30.193,4.905c-19.396,7.655-38.263,6.776-57.599,1.13c-8.759-2.557-17.636-4.711-26.405-7.234
		c-2.02-0.581-3.966-1.721-5.692-2.958c-5.723-4.097-7.294-9.087-4.647-14.062c2.587-4.862,9.267-6.421,15.391-4.676
		c15.303,4.359,30.746,8.229,46.123,12.328c7.489,1.996,14.116-1.272,20.66-3.789c10.224-3.932,20.715-5.832,31.575-6.268
		c17.451-0.702,34.561,0.862,50.912,7.52c8.806,3.585,17.62,2.285,26.349-0.061c15.194-4.083,30.699-4.923,46.325-5.629
		c11.371-0.513,22.663-2.711,33.997-4.106c5.091-0.627,10.209-1.04,15.294-1.71c5.901-0.777,11.829-1.483,17.657-2.656
		c14.951-3.009,29.082-2.174,41.712,7.576c2.747,2.12,5.686,4.228,8.873,5.489c5.488,2.172,11.191,3.856,16.895,5.414
		c7.833,2.14,15.93,3.452,23.582,6.083c7.415,2.55,14.24,1.998,21.309-0.715c7.284-2.795,15.01-4.641,21.94-8.106
		c7.951-3.976,16.25-8.205,22.621-14.209c15.92-15.005,35.114-21.752,55.997-24.727c9.641-1.374,19.531-2.297,29.212-1.743
		c11.18,0.641,19.053,8.724,27.328,15.386c1.939,1.562,3.924,3.067,5.891,4.594c6.02,4.674,12.623,5.649,20.127,4.3
		c7.959-1.431,16.088-2.007,24.167-2.648c10.575-0.839,21.192-1.172,31.758-2.101c10.048-0.883,17.562,3.719,24.486,10.149
		c6.241,5.795,11.851,12.812,19.101,16.835c8.061,4.472,17.633,6.264,26.617,8.991c1.831,0.556,3.975,0.079,5.975,0.084
		c11.41,0.03,22.825,1.098,33.313-5.653c3.664-2.359,8.956-2.06,13.344-3.473C873.799,81.459,876.039,79.649,878.914,78.001z"/>
	<path display="inline" fill-rule="evenodd" clip-rule="evenodd" fill="#FFFFFF" stroke="#FFFFFF" stroke-miterlimit="10" d="
		M892.518,395.593c-15.426,0-30.854-0.109-46.278,0.038c-10.63,0.102-21.375,1.645-31.85,0.516
		c-8.539-0.92-15.792,0.828-22.939,4.528c-4.559,2.359-8.664,5.601-13.243,7.911c-2.978,1.502-6.441,2.88-9.689,2.885
		c-99.659,0.149-199.32,0.178-298.979-0.068c-4.288-0.01-8.835-2.295-12.807-4.385c-16.829-8.855-34.527-11.001-53.121-8.025
		c-15.23,2.438-30.475,3.447-45.179-2.684c-10.632-4.433-20.748-4.9-31.688,0.016c-6.93,3.114-15.117,3.361-22.675,5.166
		c-8.711,2.081-17.535,3.936-25.964,6.877c-6.757,2.358-13.423,3.271-20.489,3.302c-15.48,0.067-30.844,0.006-46.036-3.979
		c-12.438-3.263-22.771-9.681-32.287-17.995c-8.73-7.627-17.038-16.253-29.013-18.61c-9.895-1.948-19.963-3.004-29.95-4.493
		c-6.716-1-13.475-1.812-20.117-3.182c-5.264-1.085-9.229-7.05-8.639-11.995c0.663-5.547,4.893-9.319,11.301-8.875
		c5.916,0.41,11.741,2,17.638,2.85c11.467,1.652,22.947,3.215,34.438,4.691c10.394,1.334,18.49,6.916,26.103,13.582
		c9.872,8.644,19.517,17.771,32.45,21.74c16.146,4.956,32.627,8.457,49.509,4.824c9.381-2.019,18.279-6.539,27.697-8.069
		c13.003-2.113,25.551-5.252,38.072-9.326c10.611-3.453,21.725-1.859,32.422,1.372c1.754,0.53,3.575,0.958,5.206,1.757
		c11.419,5.589,23.125,3.463,35.078,2.237c10.849-1.113,21.916-0.674,32.854-0.19c13.534,0.598,25.98,5.003,37.367,12.451
		c1.383,0.905,3.517,0.911,5.304,0.912c94.66,0.041,189.32,0.056,283.979-0.065c2.633-0.003,5.472-1.136,7.854-2.414
		c5.987-3.214,11.605-7.136,17.668-10.187c10.815-5.443,22.513-2.909,33.899-3.056c5.265-0.068,10.529-0.13,15.794-0.236
		c16.128-0.324,32.256-0.794,48.386-0.936c5.623-0.05,11.271,0.523,16.876,1.119c5.534,0.589,9.188,4.893,9.055,10.138
		c-0.131,5.114-3.646,9.067-9.02,9.656c-2.962,0.325-5.988,0.058-8.986,0.058C892.518,395.497,892.518,395.545,892.518,395.593z"/>
	<path display="inline" fill-rule="evenodd" clip-rule="evenodd" fill="#FFFFFF" stroke="#FFFFFF" stroke-miterlimit="10" d="
		M521.158,861.592c-104.82,0-209.641-0.057-314.462,0.086c-10.759,0.015-20.826-0.72-30.668-6.219
		c-12.417-6.937-26.274-11.376-38.418-18.702c-14.881-8.979-28.75-19.667-42.802-29.966c-4.427-3.245-4.374-9.815-0.815-13.876
		c3.796-4.333,11.202-4.652,16.281-0.877c6.924,5.146,14.042,10.034,20.898,15.267c12.839,9.799,27.769,15.487,42.288,22.033
		c6.184,2.787,11.991,6.426,18.221,9.088c3.713,1.586,7.916,2.86,11.9,2.862c211.975,0.136,423.95,0.082,635.924,0.279
		c7.273,0.007,11.769-4.892,17.76-7.017c12.359-4.385,24.494-9.416,36.916-13.604c3.046-1.026,7.424-0.872,10.133,0.637
		c2.742,1.528,5.587,5.312,5.786,8.281c0.197,2.958-2.065,7.692-4.587,8.937c-9.645,4.76-19.841,8.396-29.805,12.516
		c-5.956,2.463-11.81,5.182-17.814,7.516c-3.142,1.222-6.509,2.643-9.775,2.646C739.133,861.615,630.146,861.592,521.158,861.592z"
		/>
</g>
<g id="Layer_3">
	<g>
		<path fill="none" stroke="#FFFFFF" stroke-width="17" stroke-miterlimit="10" d="M0,902.21c22.606,0,45.212,0,67.818,0
			c33.265,0,44.794-22.616,64.233-46.533c20.718-25.492,36.195-37.128,61.122-9.856c21.626,23.66,33.988,56.39,69.899,56.39
			c78.976,0,157.953,0,236.929,0c166.666,0,333.333,0,499.999,0"/>
	</g>
	<g>
		<path fill="none" stroke="#FFFFFF" stroke-width="17" stroke-miterlimit="10" d="M0,772.775c87.69,0,175.381,0,263.072,0
			c18.555,0,37.405,0.962,55.933,0c34.914-1.812,45.369-27.208,65.042-53.334c15.68-20.823,30.669-37.809,53.028-15.122
			c19.497,19.783,33.102,62.023,62.926,68.456c15.752,3.397,36.236,0,52.405,0c17.625,0,35.251,0,52.876,0
			c40.104,0,80.208,0,120.312,0c91.469,0,182.938,0,274.406,0"/>
	</g>
	<g>
		<path fill="none" stroke="#FFFFFF" stroke-width="17" stroke-miterlimit="10" d="M0,620.432c166.667,0,333.334,0,500.001,0
			c32.184,0,81.655-10.528,105.281,14.755c16.569,17.731,29.984,55.138,53.818,64.416c28.038,10.915,52.368-45.467,66.493-61.562
			c17.55-19.996,33.041-17.609,57.555-17.609c24.115,0,48.229,0,72.345,0c48.169,0,96.338,0,144.507,0"/>
	</g>
	<g>
		<path fill="none" stroke="#FFFFFF" stroke-width="17" stroke-miterlimit="10" d="M0,497.069c44.017,0,88.034,0,132.051,0
			c20.374,0,40.748,0,61.122,0c21.316,0,50.065,5.084,69.899-3.734c21.323-9.48,34.948-30.876,55.933-40.937
			c25.948-12.44,46.529,13.039,65.042,27.734c32.3,25.639,76.803,16.936,115.954,16.936c75.201,0,150.402,0.142,225.602,0.016
			c26.86-0.045,38.899,3.609,57.545,24.444c20.48,22.885,40.729,60.262,72.345,31.842c19.932-17.916,34.331-52.282,63.57-56.302
			c25.85-3.554,54.815,0,80.937,0"/>
	</g>
	<g>
		<path fill="none" stroke="#FFFFFF" stroke-width="17" stroke-miterlimit="10" d="M0,375.44c44.017,0,88.034,0,132.051,0
			c20.472,0,41.417,2.198,61.121-4.402c23.716-7.945,43.857-19.941,69.899-15.652c19.606,3.229,36.451,15.375,55.932,19.091
			c20.631,3.936,44.083,0.963,65.043,0.963c19.659,0,36.867,2.796,53.028-10.561c17.106-14.139,37.591-55.27,62.926-55.269
			c21.162,0,39.845,31.804,52.405,44.941c17.179,17.968,28.991,20.889,52.876,20.889c40.104,0,80.208,0,120.312,0
			c91.469,0,182.938,0,274.406,0"/>
	</g>
	<g>
		<path fill="none" stroke="#FFFFFF" stroke-width="17" stroke-miterlimit="10" d="M0,234.342c22.606,0,45.212,0,67.818,0
			c29.602,0,44.196-13.987,66.583-31.708c21.763-17.228,38.053-25.455,61.619-6.73c23.013,18.285,35.46,38.439,67.052,38.439
			c78.976-0.001,157.953,0,236.929,0c166.666,0,333.333,0,499.999,0"/>
	</g>
	<g>
		<path fill="none" stroke="#FFFFFF" stroke-width="17" stroke-miterlimit="10" d="M0,88.792c87.69,0.003,175.381,0,263.072,0
			c40.325,0,80.65,0,120.975,0c17.676,0,35.352,0,53.028,0c19.404,0,44.035-4.126,62.926,0
			c38.975,8.513,61.11,111.833,105.281,65.517c17.651-18.509,29.645-51.876,53.818-63.174c17.371-8.119,47.665-2.344,66.493-2.344
			c91.469,0,182.938,0,274.406,0"/>
	</g>
</g>
</svg>
